# Original model Created by Flaxbeard. Converted to OBJ by TwistedGate.

mtllib projector.mtl
o Projector
v -0.125000 -0.250000 -0.250000
v -0.125000 -0.187500 -0.250000
v -0.062500 -0.250000 -0.250000
v -0.062500 -0.187500 -0.250000
v -0.125000 -0.250000 0.312500
v -0.125000 -0.187500 0.312500
v -0.062500 -0.250000 0.312500
v -0.062500 -0.187500 0.312500
v 0.062500 -0.250000 -0.250000
v 0.062500 -0.187500 -0.250000
v 0.125000 -0.250000 -0.250000
v 0.125000 -0.187500 -0.250000
v 0.062500 -0.250000 0.312500
v 0.062500 -0.187500 0.312500
v 0.125000 -0.250000 0.312500
v 0.125000 -0.187500 0.312500
v -0.437500 -0.125000 0.062500
v -0.437500 0.125000 0.062500
v 0.125000 -0.125000 0.062500
v 0.125000 0.125000 0.062500
v -0.437500 -0.125000 0.125000
v -0.437500 0.125000 0.125000
v 0.125000 -0.125000 0.125000
v 0.125000 0.125000 0.125000
v -0.156250 -0.156250 0.125000
v -0.156250 0.156250 0.125000
v 0.156250 -0.156250 0.125000
v 0.156250 0.156250 0.125000
v -0.156250 -0.156250 0.437500
v -0.156250 0.156250 0.437500
v 0.156250 -0.156250 0.437500
v 0.156250 0.156250 0.437500
v 0.093750 0.093750 0.125000
v 0.093750 -0.093750 0.125000
v -0.093750 0.093750 0.125000
v -0.093750 -0.093750 0.125000
v 0.093750 0.093750 -0.250000
v 0.093750 -0.093750 -0.250000
v -0.093750 0.093750 -0.250000
v -0.093750 -0.093750 -0.250000
v -0.062500 -0.062500 -0.437500
v -0.062500 0.062500 -0.437500
v 0.062500 -0.062500 -0.437500
v 0.062500 0.062500 -0.437500
v -0.062500 -0.062500 -0.312500
v -0.062500 0.062500 -0.312500
v 0.062500 -0.062500 -0.312500
v 0.062500 0.062500 -0.312500
v -0.125000 -0.125000 -0.312500
v -0.125000 0.125000 -0.312500
v 0.125000 -0.125000 -0.312500
v 0.125000 0.125000 -0.312500
v -0.125000 -0.125000 -0.250000
v -0.125000 0.125000 -0.250000
v 0.125000 -0.125000 -0.250000
v 0.125000 0.125000 -0.250000
v -0.125000 -0.250000 -0.312500
v -0.125000 -0.125000 -0.312500
v -0.062500 -0.250000 -0.312500
v -0.062500 -0.125000 -0.312500
v -0.125000 -0.250000 -0.250000
v -0.125000 -0.125000 -0.250000
v -0.062500 -0.250000 -0.250000
v -0.062500 -0.125000 -0.250000
v -0.125000 -0.250000 0.312500
v -0.125000 -0.125000 0.312500
v -0.062500 -0.250000 0.312500
v -0.062500 -0.125000 0.312500
v -0.125000 -0.250000 0.375000
v -0.125000 -0.125000 0.375000
v -0.062500 -0.250000 0.375000
v -0.062500 -0.125000 0.375000
v 0.062500 -0.250000 -0.312500
v 0.062500 -0.125000 -0.312500
v 0.125000 -0.250000 -0.312500
v 0.125000 -0.125000 -0.312500
v 0.062500 -0.250000 -0.250000
v 0.062500 -0.125000 -0.250000
v 0.125000 -0.250000 -0.250000
v 0.125000 -0.125000 -0.250000
v 0.062500 -0.250000 0.312500
v 0.062500 -0.125000 0.312500
v 0.125000 -0.250000 0.312500
v 0.125000 -0.125000 0.312500
v 0.062500 -0.250000 0.375000
v 0.062500 -0.125000 0.375000
v 0.125000 -0.250000 0.375000
v 0.125000 -0.125000 0.375000
v -0.187500 -0.062500 0.062500
v -0.187500 -0.062500 0.125000
v -0.187500 0.062500 0.125000
v -0.375000 -0.062500 0.062500
v -0.375000 0.062500 0.062500
v -0.375000 -0.062500 0.125000
v -0.187500 0.062500 0.062500
v -0.375000 0.062500 0.125000
vt 1.000000 0.687500
vt 0.937500 0.687500
vt 0.937500 -0.000000
vt 1.000000 -0.000000
vt 0.937500 -0.000000
vt 1.000000 -0.000000
vt 1.000000 0.687500
vt 0.937500 0.687500
vt 0.937500 0.687500
vt 0.937500 -0.000000
vt 1.000000 -0.000000
vt 1.000000 0.687500
vt 1.000000 -0.000000
vt 1.000000 0.687500
vt 0.937500 0.687500
vt 0.937500 -0.000000
vt 1.000000 0.687500
vt 0.937500 0.687500
vt 0.937500 -0.000000
vt 1.000000 -0.000000
vt 0.937500 -0.000000
vt 1.000000 -0.000000
vt 1.000000 0.687500
vt 0.937500 0.687500
vt 0.937500 0.687500
vt 0.937500 -0.000000
vt 1.000000 -0.000000
vt 1.000000 0.687500
vt 1.000000 -0.000000
vt 1.000000 0.687500
vt 0.937500 0.687500
vt 0.937500 -0.000000
vt 0.000000 0.750000
vt 0.000000 1.000000
vt 0.562500 1.000000
vt 0.562500 0.750000
vt 0.875000 0.250000
vt 0.875000 0.000000
vt 0.937500 0.000000
vt 0.937500 0.250000
vt 0.562500 0.750000
vt 0.562500 1.000000
vt 0.000000 1.000000
vt 0.000000 0.750000
vt 0.937500 0.000000
vt 0.937500 0.250000
vt 0.875000 0.250000
vt 0.875000 0.000000
vt 0.843750 0.000000
vt 0.843750 0.062500
vt 0.281250 0.062500
vt 0.281250 0.000000
vt 0.281250 0.062500
vt 0.281250 0.000000
vt 0.843750 0.000000
vt 0.843750 0.062500
vt 0.312500 0.437500
vt 0.312500 0.750000
vt 0.000000 0.750000
vt 0.000000 0.437500
vt 0.312500 0.437500
vt 0.312500 0.750000
vt 0.625000 0.750000
vt 0.625000 0.437500
vt 0.312500 0.437500
vt 0.312500 0.750000
vt 0.000000 0.750000
vt 0.000000 0.437500
vt 0.625000 0.437500
vt 0.625000 0.750000
vt 0.312500 0.125000
vt 0.000000 0.125000
vt 0.000000 0.125000
vt 0.312500 0.125000
vt 0.312500 0.437500
vt 0.000000 0.437500
vt 0.937500 0.812500
vt 0.937500 1.000000
vt 0.562500 1.000000
vt 0.562500 0.812500
vt 0.562500 1.000000
vt 0.562500 0.812500
vt 0.937500 0.812500
vt 0.937500 1.000000
vt 0.562500 0.812500
vt 0.937500 0.812500
vt 0.937500 1.000000
vt 0.562500 1.000000
vt 0.937500 1.000000
vt 0.562500 1.000000
vt 0.562500 0.812500
vt 0.937500 0.812500
vt 0.125000 0.000000
vt 0.125000 0.125000
vt 0.000000 0.125000
vt 0.000000 0.000000
vt 0.250000 0.000000
vt 0.250000 0.125000
vt 0.125000 0.125000
vt 0.125000 0.000000
vt 0.125000 0.125000
vt 0.125000 0.000000
vt 0.250000 0.000000
vt 0.250000 0.125000
vt 0.250000 0.125000
vt 0.125000 0.125000
vt 0.125000 -0.000000
vt 0.250000 0.000000
vt 0.125000 0.000000
vt 0.250000 -0.000000
vt 0.250000 0.125000
vt 0.125000 0.125000
vt 0.562500 0.187500
vt 0.562500 0.437500
vt 0.312500 0.437500
vt 0.312500 0.187500
vt 0.625000 0.187500
vt 0.625000 0.437500
vt 0.562500 0.437500
vt 0.562500 0.187500
vt 0.312500 0.187500
vt 0.312500 0.437500
vt 0.562500 0.437500
vt 0.562500 0.187500
vt 0.562500 0.437500
vt 0.562500 0.187500
vt 0.625000 0.187500
vt 0.625000 0.437500
vt 0.625000 0.437500
vt 0.562500 0.437500
vt 0.625000 0.187500
vt 0.562500 0.187500
vt 0.625000 0.187500
vt 0.625000 0.437500
vt 1.000000 0.187500
vt 1.000000 0.312500
vt 0.937500 0.312500
vt 0.937500 0.187500
vt 1.000000 0.187500
vt 1.000000 0.312500
vt 0.937500 0.312500
vt 0.937500 0.187500
vt 1.000000 0.187500
vt 1.000000 0.312500
vt 0.937500 0.312500
vt 0.937500 0.187500
vt 1.000000 0.187500
vt 1.000000 0.312500
vt 0.937500 0.312500
vt 0.937500 0.187500
vt 0.937500 0.062500
vt 1.000000 0.062500
vt 1.000000 0.125000
vt 0.937500 0.125000
vt 1.000000 0.312500
vt 1.000000 0.437500
vt 0.937500 0.437500
vt 0.937500 0.312500
vt 1.000000 0.312500
vt 1.000000 0.437500
vt 0.937500 0.437500
vt 0.937500 0.312500
vt 1.000000 0.312500
vt 1.000000 0.437500
vt 0.937500 0.437500
vt 0.937500 0.312500
vt 1.000000 0.312500
vt 1.000000 0.437500
vt 0.937500 0.437500
vt 0.937500 0.312500
vt 0.937500 0.125000
vt 1.000000 0.125000
vt 1.000000 0.187500
vt 0.937500 0.187500
vt 1.000000 0.562500
vt 1.000000 0.687500
vt 0.937500 0.687500
vt 0.937500 0.562500
vt 1.000000 0.562500
vt 1.000000 0.687500
vt 0.937500 0.687500
vt 0.937500 0.562500
vt 1.000000 0.562500
vt 1.000000 0.687500
vt 0.937500 0.687500
vt 0.937500 0.562500
vt 1.000000 0.562500
vt 1.000000 0.687500
vt 0.937500 0.687500
vt 0.937500 0.562500
vt 0.937500 0.000000
vt 1.000000 0.000000
vt 1.000000 0.062500
vt 0.937500 0.062500
vt 1.000000 0.437500
vt 1.000000 0.562500
vt 0.937500 0.562500
vt 0.937500 0.437500
vt 1.000000 0.437500
vt 1.000000 0.562500
vt 0.937500 0.562500
vt 0.937500 0.437500
vt 1.000000 0.437500
vt 1.000000 0.562500
vt 0.937500 0.562500
vt 0.937500 0.437500
vt 1.000000 0.437500
vt 1.000000 0.562500
vt 0.937500 0.562500
vt 0.937500 0.437500
vt 0.937500 0.187500
vt 1.000000 0.187500
vt 1.000000 0.250000
vt 0.937500 0.250000
vt 0.937500 0.000000
vt 0.937500 0.125000
vt 0.906250 0.125000
vt 0.906250 0.000000
vt 0.937500 0.000000
vt 0.906250 0.000000
vt 0.906250 0.125000
vt 0.937500 0.125000
vt 0.937500 0.156250
vt 0.906250 0.156250
vt 0.906250 0.250000
vt 0.937500 0.250000
vt 0.937500 0.156250
vt 0.937500 0.250000
vt 0.906250 0.250000
vt 0.906250 0.156250
vn 1.0000 0.0000 0.0000
vn -1.0000 0.0000 -0.0000
vn 0.0000 -1.0000 -0.0000
vn 0.0000 1.0000 0.0000
vn 0.0000 0.0000 -1.0000
vn -0.0000 0.0000 1.0000
usemtl None
s off
f 3/1/1 4/2/1 8/3/1 7/4/1
f 5/5/2 6/6/2 2/7/2 1/8/2
f 3/9/3 7/10/3 5/11/3 1/12/3
f 8/13/4 4/14/4 2/15/4 6/16/4
f 11/17/1 12/18/1 16/19/1 15/20/1
f 13/21/2 14/22/2 10/23/2 9/24/2
f 11/25/3 15/26/3 13/27/3 9/28/3
f 16/29/4 12/30/4 10/31/4 14/32/4
f 17/33/5 18/34/5 20/35/5 19/36/5
f 19/37/1 20/38/1 24/39/1 23/40/1
f 23/41/6 24/42/6 22/43/6 21/44/6
f 21/45/2 22/46/2 18/47/2 17/48/2
f 19/49/3 23/50/3 21/51/3 17/52/3
f 24/53/4 20/54/4 18/55/4 22/56/4
f 25/57/5 26/58/5 28/59/5 27/60/5
f 27/61/1 28/62/1 32/63/1 31/64/1
f 31/65/6 32/66/6 30/67/6 29/68/6
f 29/69/2 30/70/2 26/58/2 25/57/2
f 27/71/3 31/72/3 29/68/3 25/57/3
f 32/73/4 28/74/4 26/75/4 30/76/4
f 36/77/2 35/78/2 39/79/2 40/80/2
f 38/81/1 37/82/1 33/83/1 34/84/1
f 38/85/3 34/86/3 36/87/3 40/88/3
f 33/89/4 37/90/4 39/91/4 35/92/4
f 41/93/5 42/94/5 44/95/5 43/96/5
f 43/97/1 44/98/1 48/99/1 47/100/1
f 45/101/2 46/102/2 42/103/2 41/104/2
f 43/105/3 47/106/3 45/107/3 41/108/3
f 48/109/4 44/110/4 42/111/4 46/112/4
f 49/113/5 50/114/5 52/115/5 51/116/5
f 51/117/1 52/118/1 56/119/1 55/120/1
f 55/121/6 56/122/6 54/123/6 53/124/6
f 53/125/2 54/126/2 50/127/2 49/128/2
f 51/129/3 55/130/3 53/124/3 49/131/3
f 56/132/4 52/133/4 50/134/4 54/123/4
f 57/135/5 58/136/5 60/137/5 59/138/5
f 59/139/1 60/140/1 64/141/1 63/142/1
f 63/143/6 64/144/6 62/145/6 61/146/6
f 61/147/2 62/148/2 58/149/2 57/150/2
f 59/151/3 63/152/3 61/153/3 57/154/3
f 65/155/5 66/156/5 68/157/5 67/158/5
f 67/159/1 68/160/1 72/161/1 71/162/1
f 71/163/6 72/164/6 70/165/6 69/166/6
f 69/167/2 70/168/2 66/169/2 65/170/2
f 67/171/3 71/172/3 69/173/3 65/174/3
f 73/175/5 74/176/5 76/177/5 75/178/5
f 75/179/1 76/180/1 80/181/1 79/182/1
f 79/183/6 80/184/6 78/185/6 77/186/6
f 77/187/2 78/188/2 74/189/2 73/190/2
f 75/191/3 79/192/3 77/193/3 73/194/3
f 81/195/5 82/196/5 84/197/5 83/198/5
f 83/199/1 84/200/1 88/201/1 87/202/1
f 87/203/6 88/204/6 86/205/6 85/206/6
f 85/207/2 86/208/2 82/209/2 81/210/2
f 83/211/3 87/212/3 85/213/3 81/214/3
f 90/215/2 91/216/2 95/217/2 89/218/2
f 94/219/1 92/220/1 93/221/1 96/222/1
f 90/223/4 89/224/4 92/225/4 94/226/4
f 91/227/3 96/228/3 93/229/3 95/230/3
